<?xml version="1.0" encoding="UTF-8" standalone="no"?>
<svg
   width="752pt"
   height="752pt"
   version="1.1"
   viewBox="0 0 752 752"
   id="svg6"
   sodipodi:docname="favicon.svg"
   inkscape:version="1.1.1 (c3084ef, 2021-09-22)"
   xmlns:inkscape="http://www.inkscape.org/namespaces/inkscape"
   xmlns:sodipodi="http://sodipodi.sourceforge.net/DTD/sodipodi-0.dtd"
   xmlns="http://www.w3.org/2000/svg"
   xmlns:svg="http://www.w3.org/2000/svg">
  <defs
     id="defs10" />
  <sodipodi:namedview
     id="namedview8"
     pagecolor="#ffffff"
     bordercolor="#666666"
     borderopacity="1.0"
     inkscape:pageshadow="2"
     inkscape:pageopacity="0.0"
     inkscape:pagecheckerboard="0"
     inkscape:document-units="pt"
     showgrid="false"
     inkscape:zoom="0.58743351"
     inkscape:cx="501.33333"
     inkscape:cy="526.01698"
     inkscape:window-width="1827"
     inkscape:window-height="915"
     inkscape:window-x="0"
     inkscape:window-y="25"
     inkscape:window-maximized="0"
     inkscape:current-layer="svg6" />
  <style
     id="style2">
		path {
			fill: #0F145B;
		}
		@media ( prefers-color-scheme: dark ) {
			path {
				fill: #43C1C5;
			}
		}
	</style>
  <path
     d="m 704.53086,228.80054 -24.28158,-8.34844 -9.86291,-70.56174 c -5.31324,-40.21617 -38.69417,-69.80394 -78.91034,-71.319537 -4.54967,0 -9.10575,0 -13.65542,0.757254 L 362.33679,108.91745 209.83031,55.804293 c -24.28158,-8.348436 -50.83495,4.549672 -59.17874,28.831575 l -19.72518,56.906952 -29.58938,3.79252 c -22.003377,3.03519 -40.972361,14.41274 -54.628749,31.86757 -12.898268,17.44858 -18.968984,39.45196 -15.933466,60.69915 L 49.74378,374.48195 18.634004,464.01268 c -8.348436,24.28158 4.549672,50.83495 28.831575,59.17874 l 24.281582,8.34844 9.862911,70.56174 c 5.313238,40.21617 38.694168,69.80394 78.910338,71.31954 4.54967,0 9.10575,0 13.65542,-0.75726 l 215.48382,-29.58937 152.50648,53.11316 c 24.28158,8.34843 50.83495,-4.54968 59.17874,-28.83158 l 19.72518,-56.90695 29.58938,-3.79252 c 44.76456,-6.07055 76.63213,-47.80056 70.56173,-92.56512 l -18.96898,-136.57348 31.10978,-89.53073 c 8.34218,-24.28158 -4.55609,-50.83495 -28.83158,-59.18355 z M 536.085,354.75363 c -9.86292,-7.58503 -24.28159,-5.31324 -31.86758,4.54968 L 439.72608,444.28404 289.49621,330.47173 c -9.86292,-7.58503 -24.28159,-5.31324 -31.86758,4.54967 L 138.50853,492.84207 102.09257,229.56731 c -0.75725,-3.79252 0.75725,-6.82772 2.27804,-8.34844 1.51449,-1.51449 3.79252,-3.79252 7.58503,-4.54967 l 476.48359,-66.01175 h 2.27804 c 4.54968,0 9.86291,3.79252 10.62023,9.10575 l 37.93797,271.62177 z m -54.62876,-95.60112 c 3.79252,29.58938 -16.69078,56.90696 -46.28015,61.45535 -29.58938,3.79251 -56.90696,-16.69079 -61.45535,-46.28016 -4.54967,-29.58937 16.69078,-56.90695 46.28016,-61.45534 30.35198,-3.79877 57.66315,16.69078 61.45534,46.28015 z"
     id="path4"
     style="stroke-width:1.60211" />
</svg>
